<svg xmlns="http://www.w3.org/2000/svg" viewBox="0 0 139.12 139.01"><defs><style>.cls-1{fill:#8c0000;}</style></defs><g id="Layer_2" data-name="Layer 2"><g id="Layer_1-2" data-name="Layer 1"><g id="_3J4oQI" data-name="3J4oQI"><path class="cls-1" d="M77.22.39C129.33,5.8,156.52,66.1,126.91,109,96,153.8,27.69,147.18,5.93,97.51-15.46,48.7,24-5.13,77.22.39ZM32.44,12.83c-1.59,1.25-3.67,2.09-4.86,3.78.44.11.87.51,1.35.36a27.54,27.54,0,0,0,4-3A5.21,5.21,0,0,0,32.44,12.83Zm6-3.5-5,2.83.51,1.46c.87-1,3.15-1.41,4-2.18C38,11.26,38.87,9.35,38.4,9.33ZM27.94,18c.07-.34-1.52-.69-1.92-.44-1.16.7-2.57,3-3.83,3.8L25,20.89ZM45.05,6.86c-1.38.6-3.67,1-4.87,1.83a14.62,14.62,0,0,1-1.08,2.1L43,9.67ZM23.84,22a7,7,0,0,0-5.38,4.21c-.15.29-.35.23.05.63.94-.87,2.71-1.09,3.6-1.88C22.34,24.78,24.09,22.1,23.84,22Zm9.39-6.75L30,17.5c1.29.46,2.27,2,3.61,1.13C35.27,17.57,33.83,16.7,33.23,15.27Zm4.19-2.58-3.38,2,1.47,2.58c.31-.45,1.55-.67,1.69-1,.06-.13.32-2.46.34-2.78S37.76,13,37.42,12.69ZM32.2,19.85c-.65-.21-2.45-1.63-3-1.47-1,.28-1.82,1.77-2.65,2.37C28.61,20.87,30.75,21.75,32.2,19.85ZM56.46,2.61c-2.44.52-5,.73-7.13,2.21l4.22-.35c.74-.45,1.6-.72,2.34-1.16C56.12,3.17,56.75,2.91,56.46,2.61ZM42.11,11.26c-.25-.3-.52-.1-.79,0-3.09.71-3,2-3.1,4.8.36-.4,1.25-.24,1.53-.52C40.43,14.85,41.05,12,42.11,11.26Zm9.75-5.79c-3.12.41-5.53.76-7.25,3.78l3-.26c1.31-.87,2.46-1.91,3.72-2.84C51.53,6,52.15,5.78,51.86,5.47ZM30.18,22.13c-.91-.2-3.76-.47-4.5-.14a16.88,16.88,0,0,0-2.09,2.28c-.12.58.35.27.58.23.61-.11,4.27-1,4.66-1.19C29.39,23,29.65,22.43,30.18,22.13ZM14.87,30.26a12.93,12.93,0,0,0-3.59,4.2l-1.09,2.89C12.55,35.42,14.41,33.35,14.87,30.26Zm.24,2.52,5.17-3.55.95-2.74c-1.55.89-3.44,1.34-4.65,2.76ZM46.05,10.05a9.78,9.78,0,0,0-2.61.65c-.37.34-2.46,4.1-2.3,4.36a1.39,1.39,0,0,0,1.19-.15A55.06,55.06,0,0,0,46,10.66C46.21,10.44,46.61,10.2,46.05,10.05ZM21.74,28.52c1.68-1.4,4.42-1.91,6.15-3,.39-.25.68-.4.68-.93C26,24.76,21.92,25.13,21.74,28.52ZM54.08,5.43A39.8,39.8,0,0,0,49.61,8.5s-.36.61-.29.65C52.84,10.1,54.87,7,58,6,57.67,5.41,54.54,5.24,54.08,5.43ZM65.6,2.89a11.19,11.19,0,0,0-9.46,1.42L60,5ZM50.49,10c-1.13.31-1.73-.36-2.82.43-.52.37-4.28,4.45-4.07,4.74.58.8,2.34-1.41,2.81-1.78.77-.6,1.64-1.07,2.42-1.67ZM19.93,30.67,15.36,33.8c-1,.69-1.52,3-1.47,4.14,0,.22-.21.63.25.59,1.1-1.91,4.53-3.71,5.5-5.35C20,32.59,19.78,31.38,19.93,30.67Zm1,1.41c2-1.52,4.41-2.78,6.4-4.38,1.74-1.39.07-.87-1-.42a34,34,0,0,0-5,2.53C20.87,30.15,20.85,31.55,20.9,32.08ZM13.11,36c-2.74,2.37-5.41,5.52-4.58,9.4.69-1.69,3.69-4.08,4.27-5.48.26-.63-.14-1.87-.12-2.07S13.22,36.43,13.11,36Zm41-24.58c0-.13-2.12-1-2.44-.72l-6.3,4.93.76.39Zm9-3.81C63.24,7.17,60,6,59.6,6.17a34.46,34.46,0,0,0-3.72,1.9c-.87.52-1.67,1.2-2.53,1.74l2,.93c2-.84,4.1-1.59,6.12-2.42.26-.1.37-.45.47-.51S63,8.29,63.14,7.56ZM28,28.44c-.37-.07-5.35,3.68-6.19,4.25a1.9,1.9,0,0,0-.36,2.94c1.89-2.29,4.39-4,6.51-6.05C28.27,29.23,28.5,28.55,28,28.44Zm44.79-23c0-.45-4.06-2.05-4.84-2.05s-6.41,1.74-6.49,2.07l3,1.72A69,69,0,0,1,72.74,5.45Zm-53,28.91C18.53,36,15,38.23,14.06,39.93c-.28.51.3,3.5.65,3.57l5.83-7.06ZM7.34,43.19c-.33,0-1.43,2-1.62,2.44A21.67,21.67,0,0,0,4.37,51c0,.36-.27.67.09,1l2.77-4.88Zm49.2-29.6c-.34-.53-1.09-1.54-1.77-1.41L47,16.59c.14.14.33.57.42.6C47.85,17.33,55.08,13.51,56.54,13.59ZM29.34,30.47c0-.26-.58-.53-.85-.25-.95.88-6.63,5.69-6.62,6.56,0,.65.89,1,1.23,1.55C23.53,37,29.31,31,29.34,30.47ZM13,41.07c-.39,0-4.43,5.75-4.62,6.3-.39,1.18.72,3.64.95,4.86L14,44.79Zm53.7-30c-.53-.69-1.49-2.57-2.42-2.65L56,11.55c.43.23,1.47,1.85,1.59,1.87s2.16-.83,2.75-1C62.48,11.9,64.6,11.39,66.74,11.06ZM56.9,14.54l-9.17,3.6.56.54,8.82-1.9C58.05,16.64,57.05,14.58,56.9,14.54ZM76,2.1c-.48-.05-5.58.51-5.64.79L74,5l7.76-.36C81.78,4.11,76.72,2.18,76,2.1ZM17.5,47.55c.31-1.3,5.23-8.19,5-8.65S21.15,38,21,37.41c-.63.92-5.73,6.78-5.72,7.25A11.63,11.63,0,0,0,17.5,47.55ZM30.1,31.14c-.48-.06-5.24,6.74-6.17,7.53-.05.37,1.92,1.39,2.32,1.06.18-1.28,4.65-7.82,4.39-8.21A6.58,6.58,0,0,0,30.1,31.14Zm18-10.28L57,20.41c.81-.34.5-1.92.65-2.64-1.38,0-9.35,1.55-9.67,2.36A3.51,3.51,0,0,0,48.11,20.86ZM65.88,8.07l2,2.84c1-.69,9.18-.81,9.26-1.29-.36-.69-2.58-3.42-3.19-3.5a51.1,51.1,0,0,0-5.1,1A15.9,15.9,0,0,0,65.88,8.07ZM32.63,31.8a4.23,4.23,0,0,0-1,.24c-1.62,1.49-3.08,6.28-4.52,8.18.76,0,2.54.63,3,.06.56-2.7,1.89-5.21,2.58-7.85C32.74,32.27,33.15,31.94,32.63,31.8ZM7.48,49.06C7.17,49,5.93,51.58,5.72,52a14.31,14.31,0,0,0-1.43,3.53c0,.75.92,5.44,1.31,5.56l3.24-7.45ZM67.3,11.89c-1.37.32-2.76.49-4.14.81a33.76,33.76,0,0,0-4.48,1.21c-1.34.72,0,1.42-.13,2.62l9.72-.85A8.8,8.8,0,0,0,67.3,11.89ZM54.61,24c.39.05.81.55,1.24.2.12-.1,1.43-2.74.76-2.88-1.39.28-8.16,0-8.87.56-1.5,1.24,1.35,1.44,2.28,1.59C51.47,23.68,53.14,23.77,54.61,24ZM34.77,38.56c.1-.78.59-5.86.5-6.2-.2-.75-1.31-.45-1.6,0l-2.55,8a13.33,13.33,0,0,0,3.4-.47A12,12,0,0,0,34.77,38.56Zm-20.1,7.06c-.44-.11-4.55,7.28-4.56,7.73,0,1.15,2.08,3,3,3.81l4-8.45ZM25.8,41c-.82-.24-2-1.38-2.76-.79a41,41,0,0,0-2.35,3.65c-.66,1.09-1.62,2.72-2.15,3.84-.4.85,1.24,1.17,1.75,1.55.42,0,1.51.92,1.8.54a22.31,22.31,0,0,0,1-2.83c.64-1.6,1.38-3.5,2.16-5.25A1.64,1.64,0,0,1,25.8,41Zm28.28-16-7.17-1-1,1.14,6.81,3.34c.66,0,1.78-2.43,2.47-2.86C55.21,25.31,54.32,25,54.08,24.93ZM38.08,31c-.52.34-1.52.18-1.84.79l-.7,7.66c.27.4,3.39-.87,4-1.11Zm14.31-1.77c.1-.36-6.4-3.07-6.77-3.11-.88-.08-1.11.73-1.72,1.18l5.46,4.91ZM84.88,3a21.24,21.24,0,0,0-2.29-.55c-.32,0-2.69-.29-2.73-.06,1.27.39,2.5,1.66,3.59,2.12,1.44.62,4.67.09,6.34.61A12.53,12.53,0,0,0,84.88,3ZM40.8,29.77l-1.93,1.06C39.35,31.7,40,38,40.5,38l3.72-2ZM45,35.51l2.94-2a3.39,3.39,0,0,0,.51-.8c-.86-.47-4.8-4.56-5.26-4.54a7.7,7.7,0,0,0-1.6,1.07C41.53,29.7,44.77,34.52,45,35.51ZM68.28,19.13c.11-.83.07-1.7.17-2.53-1.53.23-9.09.32-9.91,1-.11.09.14,2.45-.4,2.69l9.49.8C68.11,21,68.21,19.61,68.28,19.13ZM83.17,5.54a41.78,41.78,0,0,0-5.8.21c-.34,0-2.06.16-2.1.35,1,.42,2.72,3.48,3.21,3.71.1,0,1.8-.11,2.22-.1a50,50,0,0,1,6.47.46C86.8,9.06,84.18,5.83,83.17,5.54ZM79.29,15.87c-.55-1.67-.55-3.68-1.8-5l-9,.82.86,3.88ZM28,41.43c-.53,0-.87-.78-1.54.08L23.13,50.1c.65.15,4.35.82,4.64.53l2.05-8.84C29.44,41.07,28.63,41.46,28,41.43ZM3.64,57.37l-1.1,2.88a13.78,13.78,0,0,0,.73,9.6l2-7.16A14.09,14.09,0,0,1,3.64,57.37Zm6.48,9.87c0-1.46,2.82-8.21,2.64-9s-3.06-2.6-3.29-3.72c-.53,1.29-3.23,6.81-3.13,7.82C6.41,63.08,9.62,67.22,10.12,67.24Zm8.71-6.88,2.94-9.62-4-1.61c-.43.17-3.76,8-3.7,8.5a.94.94,0,0,0,.56.8ZM59.67,25.29c.82.21,5.36,1.74,5.64,1.65.7-.23,2.16-3.92,2.12-4.87-.26-.38-8.86-.89-9.27-.66s-1,2.6-1.46,3.26C57.68,24.87,58.7,25,59.67,25.29ZM30.15,44.42c-.5,2.06-.95,4.12-1.28,6.22l5.58-.79.07-8.77a29.33,29.33,0,0,0-3.73.42A25.26,25.26,0,0,0,30.15,44.42Zm30-17.91c-.65-.16-3.65-1.16-4-1l-2.3,3.33,7.68,3.95L65,28.07C65,27.55,60.77,26.66,60.16,26.51ZM89.76,6.19c-.23,0-.46-.23-.74-.27-1.26-.18-2.65,0-3.93-.3l3.47,4.58c2.84.15,5.52,1.07,8.34,1.34-1.11-1.66-3.07-4.37-5-5.09A10.28,10.28,0,0,0,89.76,6.19ZM79,16.72l-9.26-.2c-.5.22-.48,3.84-.83,4.58l9.44,2C78.85,23,79.54,16.94,79,16.72Zm5.35-.24c.67.1,5.09.88,5.27.68A16.12,16.12,0,0,0,88,11.27a39.18,39.18,0,0,0-9.18-.44l1.42,5.09C81.61,16,83,16.27,84.31,16.48ZM41.71,47.64l-2-8.06a19.8,19.8,0,0,0-4,1.2c-.55.55.07,5.09-.29,6.12l.25,2.79Zm8.41-14.72c1,.49,5.25,5.42,5.8,5.43s5-4.38,4.78-4.79l-7.42-3.88ZM27.85,51.78l-5.23-.54-2.46,9.25c2,.77,4.22.67,6.34.82ZM48.76,44,45,37.22c-.47-.36-3.84,1.38-4.19,1.83-.49.65,1.74,6.65,1.67,7.92C42.94,47.59,47.87,44.17,48.76,44ZM49.3,33.5l-3.71,2.82,4,7.11,5.74-4.24ZM8.92,74.8c-.23-1.29,1.25-5.19.95-6.11C9.46,67.43,6.36,65.45,6,63.82c-.42,1.49-2.18,6.79-1.78,8.07.6,2,3,4,4.42,5.33ZM2.43,78.19c.13-1.74.75-4.31.61-6C2.93,70.84,1.69,69,1.39,67.56A22.36,22.36,0,0,0,2.43,78.19ZM18.59,62.44c.07-.38.51-.92.19-1.25a25.25,25.25,0,0,1-3.65-1.41c-.49-.22-.92-1-1.47-.65S10.92,67.46,11.3,68s5.51,3.12,6,2.61C17.75,67.9,18.12,65.15,18.59,62.44ZM72.2,22.64a34.38,34.38,0,0,1-3.7-.54,15.07,15.07,0,0,1-2.08,5l8.83,3.46c.7-.23,3.08-6,2.61-6.7C76,23.55,74.09,23,72.2,22.64ZM34.39,50.89l-5.7.94c-.07,1.12-1.45,9.27-.84,9.5l7.62-1Zm53-33c-.85-.16-6.89-1.06-7.19-.86.18,2.07-.49,4-.74,6.08l9.4,2.62c.93-2.28.64-4.71.92-7.1C89.66,18.3,87.86,18,87.42,17.87Zm18.46-3.25a14.48,14.48,0,0,0-11-7.36L98.5,12Zm-13.7,3.27c2.28.59,4.55,1.32,6.79,2.06.31.14.44.12.58-.23.33-.81-1.1-5.53-1.66-6.33s-4-1.46-5-1.63c-.66-.11-2.56-.4-3.12-.4-.25,0-.39-.15-.64.15a18.56,18.56,0,0,1,1.61,6.21A9.93,9.93,0,0,1,92.18,17.89ZM74.93,31.69,66.1,28.23l-3.69,5.21L70,38.36C72,36.42,73.36,34,74.93,31.69ZM25,62.19a35.84,35.84,0,0,1-5.27-.68l-1.42,8.58c0,.32-.08.81.16,1,.56.55,7.59,1.29,8,1l.12-9.52C26.45,62,25.78,62.27,25,62.19Zm16.9-13.81c-1.95,1.23-4.32,1.48-6.42,2.34l.83,9.08c1.42-.13,7.74-1.81,8.17-2.89C44.69,56.5,42.16,49.48,41.94,48.38ZM8.41,86.91l.16-8.38a25.81,25.81,0,0,1-4.57-5c-.14,1.87-.82,5.55-.37,7.27C4.16,82.84,6.88,85.5,8.41,86.91ZM14,71.05c-.12,0-.17-.38-.36-.47a13.94,13.94,0,0,1-2.88-1.71l-1.21,8.8C10,79,15.27,81,16.76,81.47c-.21-1.22.7-9,.45-9.41a11.47,11.47,0,0,0-2.41-1C14.52,71,14.14,71.1,14,71.05Zm47.7-36.83-5,4.89,6.37,6.66,6.33-6.43C69.55,38.73,62.66,35,61.73,34.22ZM49.32,44.8l-6.38,3.32,2.72,8.74,8.27-4.48Zm6.75-4.89-5.94,4.33,4.61,7.58c2.78-1.4,5.1-3.6,7.57-5.49ZM81.2,33.19c.71.33,3.64,2.25,4.13,1.77a45.1,45.1,0,0,0,3.3-8c-1.21-.36-9-3.09-9.55-2.51l-2.7,6.75C78,31.76,79.64,32.45,81.2,33.19Zm17.4-3.12c.34-.12.28-.31.37-.55.45-1.17,1.25-7.42.58-8.31-.29-.39-8.42-2.73-8.86-2.43-.11.08.06,2.3,0,2.84-.09.82-1,4.24-.68,4.64ZM35.49,61.16c-1,.68-7.81.88-8,1.36L27.38,72c.32.46,8.79-.69,9.88-1.26-.95-2.41-1.09-5.24-1.51-7.82A3.67,3.67,0,0,1,35.49,61.16ZM99.25,13.21c-.58.32-.34.22-.19.58a23.21,23.21,0,0,1,1.74,6.82l8.28,3.45c-.57-2.12-.94-6.4-2.49-8C105.45,14.94,100.78,14.22,99.25,13.21Zm14.26,5.13a21.78,21.78,0,0,0-7-6.41l-2.35-1.18a21.43,21.43,0,0,1,3.3,4.61ZM78.73,44.6c.9-1.08,6.15-7.64,5.72-8.58-.2-.43-7.53-3.63-8.6-4l-4.91,6.93ZM26.58,78.07c0-.11.32-.4.29-.73a29.1,29.1,0,0,0-.44-4.1c-2.73-.18-5.4-.53-8.12-.86-.34.33-.47,4.76-.47,5.58s-.17,3.42.27,3.79c.65.54,8.8,1.42,9.18,1.15-.11-1.43-.16-2.88-.28-4.31C27,78.32,26.59,78.17,26.58,78.07ZM9.9,96c-1-1.82-.53-5.84-1.26-7.42-.38-.81-1.83-1.71-2.48-2.43s-1.54-2.08-2.37-3L4.34,88c.37,2.6,1.89,4.58,3.64,6.47ZM9.67,79.19c-.43,0-.26,8.11,0,8.55.52.94,7.39,4.28,7.85,4l-.63-9C15.62,82,14,81.6,12.62,80.94A17.9,17.9,0,0,1,9.67,79.19Zm28.47-8.52c1.4-.58,9.68-2.76,10-3.71-1.17-2.27-1.66-5.59-2.73-7.76-.17-.33-.29-.68-.65-.85l-8.36,2.8ZM70.39,53.32,78,45.43,70.26,39.7a44.79,44.79,0,0,1-6.52,6.54ZM89.45,27.4l-3.32,8.39,8.46,4.76c.69-1.3,4.2-8.38,3.82-9.37-.21-.57-2.77-1.53-3.48-1.85A37.14,37.14,0,0,0,89.45,27.4ZM54.28,53.33c-.94,1.1-7.94,3.84-8.21,4.58-.16.44,2.69,7.72,3.16,8.74l10.05-5.14ZM63.06,47l-7.71,5.69a60.6,60.6,0,0,0,5,8.09l9.26-7Zm45.76-19.15c0-.61.8-1.9,0-2.76-2.23-1-4.69-2.46-7-3.2-.26-.08-.6-.25-.85,0s-.5,5.37-.65,6.26c-.25,1.51-1.37,2,.47,2.86a56.57,56.57,0,0,1,6.31,3.38,2.07,2.07,0,0,1,.67.71c.36-.13.28-.31.37-.55C108.89,32.56,108.78,29.86,108.82,27.89Zm-.31-11.19c-.53.27-.33.22-.24.57.25.92.76,1.82,1,2.85.21.85.61,4.23.84,4.57.67,1,5.9,2.92,6.87,4.38,1,.06-1.52-7.53-2.07-8.27C113.75,19.24,110,18.09,108.51,16.7ZM37.06,71.75c-1.54.37-3.11.73-4.69,1-1,.14-4.2.06-4.68.69s.66,8.31.73,9.61l11.1-1.65Zm-9.66,12a35.08,35.08,0,0,1-9.46-1c.06,1.42.23,8.62.94,9.31.53.52,10.26,1.69,10.49,1ZM85.71,36.54l-6.22,8.74,7.73,6c.63-.71,1.25-1.45,1.84-2.19.15-.19.5-.66.7-.94.59-.8,4.15-6,4.13-6.52C93.86,40.86,86.67,37.39,85.71,36.54ZM9.94,89.15c-.59-.11-.25.36-.22.57.32,2.5.83,5,1.37,7.44l4.38,2.71,4.39,1.56c-1.07-2.74-1.41-5.69-2-8.54a52.32,52.32,0,0,1-6.56-2.76C10.9,89.94,10,89.16,9.94,89.15Zm2.46,15.31c-1.12-1.6-1.28-5-2.15-6.47S6.66,95.12,5.77,93.5L6.86,97a22.51,22.51,0,0,0,3.06,5.17ZM48.55,68a48.92,48.92,0,0,1-10.29,3.48l2.35,9.73L52.36,77ZM107,37.5c0-.09,1-1,.48-1.64-.31-.37-7.65-4.52-8-4.29-.38.92-.65,1.89-1,2.82a64,64,0,0,1-2.55,5.89,1.8,1.8,0,0,1-.56.69l7.91,5.89a73.7,73.7,0,0,0,3.81-8.58C107.15,38,107,37.68,107,37.5ZM77.39,61.34a65.18,65.18,0,0,0,9.07-9.2L79,45.9l-8,8.16Zm-17.66.78A52.65,52.65,0,0,1,49.5,67.65l3.81,9a67.9,67.9,0,0,0,11.58-6.14Zm50.61-36.23c-.32.14-.29.14-.33.42-.21,1.3,0,3.24-.18,4.7a34.12,34.12,0,0,1-1,4.44l7.34,5.5a47.88,47.88,0,0,0,1-5c0-.1,0-.85.05-1.21,0-.79.27-3.73,0-4.26C116.75,29.3,111.51,27,110.34,25.89Zm14.1,8.81c-.63-2.36-.85-5.2-2.07-7.37s-3.63-3.62-5.47-5.35c-.29.24-.1.52,0,.79.36,1.54.91,3.09,1.24,4.65.15.72-.09,1.69.28,2.37.24.43,4.1,3.62,4.85,4.26C123.49,34.26,124.12,34.88,124.44,34.7Zm-54.31,20-9.46,7.07,5.13,8.14c.89.33,9.51-6.78,10.92-7.81ZM39.53,82.29l-5.8,1.18-5.3.44,2,9.26c.49.5,12-1.06,12.18-1.67ZM24.79,94c-2-.22-4.05-.39-6.06-.75C19.63,96,19.81,99,21,101.71A34.47,34.47,0,0,0,32.31,103L29.53,94.2C28.1,94.58,26.29,94.16,24.79,94Zm-8,7.61-5.32-2.8c.7,1.92,1.36,5.49,2.52,7.08.72,1,8,4.72,8.72,4.3L20,102.67C19.55,102.12,17.49,101.89,16.83,101.61Zm85.85-53.79c0-.74-6.72-5-7.85-5.6l-6.76,9.87,7,6.32C96,58.51,101.94,49.26,102.68,47.82ZM52.71,78,40.9,82.24l2.71,9c1.61.14,12.9-3.68,13.08-4.35Zm58.35-24.55A48.48,48.48,0,0,0,115.93,42c-.05-.45-6.31-4.95-7.32-5.41L108,38a3.86,3.86,0,0,1-.61,2.09c-1,2.45-2.08,4.83-3.24,7.2Zm12.13-6.24c.41-.15.3-.42.4-.72.44-1.37,1.35-8.59.94-9.74-.47-1.35-5-4.47-6.14-5.64L118,37.48l-.84,3.93ZM94.52,59.39,87.3,52.74l-9.11,9.71,6.13,7.25Zm35.27-18.21c.16-5-2.76-9.06-5.77-12.75L125.1,33c.3.71.11,2.55.33,3.08C125.92,37.21,129.26,39.58,129.79,41.18ZM65.45,71.33,53.71,77.72l4.1,9,13-7.14ZM43,92.45,30.56,94.39l2.67,8.72c1.62.06,13.08-1.15,13.24-2ZM77.48,62.77,66.4,71l5.36,8.26a102.78,102.78,0,0,0,12-9.11ZM23.75,103.36l-2.56-.45c.52,1.53,1,3.13,1.58,4.63a28.58,28.58,0,0,0,1.32,3c.5.48,4.18,1.27,4.92.73,0,0,0,.44.09.48.27.12,5.47.37,6,.32.31,0,.58.06.83-.22l-3.45-7.56C29.57,104,26.68,103.8,23.75,103.36ZM27.05,118c-.77-1.2-1.53-2.45-2.23-3.69a15.8,15.8,0,0,0-1.26-2.64A43.57,43.57,0,0,0,19.07,110c-1.38-.58-2.76-1.66-4.16-1.9l3.43,5.71A25.28,25.28,0,0,0,27.05,118Zm83.82-63.51-7.3-6a70.91,70.91,0,0,1-7.72,10.66L102.36,66C105.85,62.66,108,58.28,110.87,54.47ZM57.07,87.82c-4.18,2.08-8.79,3.23-13.24,4.61L47.45,101a81.65,81.65,0,0,0,14-4.57ZM120.3,55.87c.53-1.18,2.83-6.45,2.65-7.39-.11-.61-5.91-6-6.27-5.75a46.22,46.22,0,0,1-4.86,11.39l6.09,6.26C118.38,60.48,120.06,56.41,120.3,55.87Zm8.64-1.58c.42-.15.31-.42.41-.72.48-1.56,1.36-8.58.87-9.92-.75-2-3.24-4.2-4.57-5.89a65.54,65.54,0,0,1-1.43,10.44C125.68,50.3,127.83,52,128.94,54.29ZM95.31,60.08,85.1,70.38,91,77.67A80.86,80.86,0,0,0,102,66.8ZM46.62,102.19a47.89,47.89,0,0,1-13,1.71c-.13.3,0,.46.06.72.27.91,2.9,7,3.3,7.26.57.41,5.16-.18,6.18-.3s7.52-1,7.63-1.57ZM71.17,80.53l-13,7.14L62.36,96a94.06,94.06,0,0,0,13.92-7.29,2.75,2.75,0,0,0-.17-1Zm62.52-33.67c.32-.3.08-.65,0-1a31.8,31.8,0,0,0-2.85-7.08l.4,4.5ZM26.53,112.24c-.55-.08-1.19-.63-1.74-.17,1.29,2.26,2.29,4.76,4.16,6.63a41,41,0,0,0,11.36,1.21l-3.77-6.79c-.33-.25-.58.21-.68.19C32.79,113,29.62,112.73,26.53,112.24Zm45.8-31.76,5.08,7.4c4.69-2.47,8.78-6.14,12.9-9.45l-5.9-7.29L72.62,79.83A.76.76,0,0,0,72.33,80.48ZM21.41,117a3.17,3.17,0,0,1-.93-.73c-.39.19.11.63.28.84a22.43,22.43,0,0,0,10.17,7.18c.35.11.67.27,1-.06-1.54-1-2.77-3.86-4-4.82C27.54,119,22.49,117.55,21.41,117ZM109.08,73.6a78.76,78.76,0,0,0,8.35-12c0-1.32-5-5.36-6-6.68a73.14,73.14,0,0,1-8.09,11.59Zm19.23-17.29c0-.05.71-.3.44-.83-.75-.53-4.29-6.47-5-6A60.8,60.8,0,0,1,118.93,61l.08.55,4.8,6.11a61.27,61.27,0,0,0,4.53-10.58C128.42,56.81,128.26,56.5,128.31,56.31ZM62,97.28,47.85,102.2l3.79,7.66c5.11-.79,10.06-2.93,15-4.7Zm71.54-36.82c.54-2.26,1.43-6.89.91-9.12-.46-2-2.09-4.34-3.15-6.15L131,50.08l-1.13,5.36,3.59,5.89C133.75,61.11,133.52,60.73,133.58,60.46Zm-30.79,7L91.73,78.69l5.51,7.22,11.37-11.69ZM51.17,111c-4.41,1.47-9.11,1.5-13.67,2.2,1,1,3.24,6.2,4.14,6.69,1.39.77,11.8-1.31,13.87-1.75ZM77,89.39c-4.35,3-9.21,5.18-13.94,7.49a67.18,67.18,0,0,0,4.49,7.67,80.34,80.34,0,0,0,14.6-7.66ZM31.41,120.26c-.49-.07-1.06-.54-1.73-.2,1.38,1.64,2.86,4.21,4.77,5.23,2.46,1.31,8.16,1.18,11,1.24L40.91,121A70.3,70.3,0,0,1,31.41,120.26ZM77.9,89l5,7.3c4.86-2.76,9.17-6.38,13.51-9.88l-5.55-7.22A120.14,120.14,0,0,1,77.9,89Zm43.84-18.38c.06-.1.47-.12.7-.48s.81-1.31.71-1.66c-.48-1.74-3.56-4.09-4.33-5.94l-.64-.29a91.41,91.41,0,0,1-8.3,12l4.9,6.75a112.11,112.11,0,0,0,7-9.9C121.88,71,121.71,70.71,121.74,70.66ZM36.82,129.17l-3.57-3.12-4.4-1.55C31.16,126.39,33.9,128.37,36.82,129.17Zm91.31-54.33A54.7,54.7,0,0,0,133,63.28c-.39-2.56-2.52-4.41-3.44-6.74a91.74,91.74,0,0,1-5,11.9C125.48,70.65,127.24,72.63,128.13,74.84ZM66.79,106l-14.37,5,4.08,6.85c1.85-.16,14.89-4.28,15-5.06-1-1.48-2.05-2.88-3-4.36C68.16,107.87,67.59,106,66.79,106ZM136.3,68c1.17-4.62,1.44-9.71-.74-14.11l-.34,4-1.05,5ZM56.05,119a59.93,59.93,0,0,1-13,1.84l-.45.62,4.24,5.25c4.62-.39,9.32-.63,13.8-2ZM97.86,86.82,102,92.9c0,.08.43.19.56.32,4.26-3.25,7.8-7.39,11.4-11.33.26-.65-4.2-5.58-4.69-6.66ZM42.1,127.47c-2.15-.21-4.27-.45-6.4-.81a21.74,21.74,0,0,0,4.53,3.73,25.23,25.23,0,0,0,5.09,1.16c.53.08,5.85.59,5.87.29-1.51-.87-3.12-3.23-4.47-4C46.05,127.43,43.13,127.57,42.1,127.47ZM82.66,97.71a89.45,89.45,0,0,1-14.7,7.7c.44,1,4.13,7,4.67,7a92.44,92.44,0,0,0,14.76-7.79ZM97,87.28c-4.33,3.46-8.57,7.3-13.51,9.87l4.53,7a104.28,104.28,0,0,0,13.72-10Zm27-17.63L115.46,81.6a.61.61,0,0,0,.08.54c.72,1.65,2.81,3.94,3.63,5.72.39.07,4.41-5.44,5-6.24a41.42,41.42,0,0,0,3.33-5.4A1.86,1.86,0,0,0,127.3,75Zm7.33,12c.24.06,2-4,2.16-4.46a36.75,36.75,0,0,0,2.25-6.31c.23-1.82-1.5-4.66-1.92-6.46-1.57,3.91-2.84,7.93-5.07,11.53ZM76.48,119.56c-1-.74-3.87-5.69-4.52-5.72-.41,0-6.61,2.59-7.8,3-2.3.77-4.68,1.33-7,2,.9,1,3.84,5.67,4.85,5.76C63.79,124.24,76.34,120.32,76.48,119.56Zm-15.29,6.09a57.78,57.78,0,0,1-13.26,1.87c0,.39,4.19,4.13,4.94,4.35a12.7,12.7,0,0,0,2.3,0,87.67,87.67,0,0,0,10.46-1.57ZM137.61,74.3a21.47,21.47,0,0,0,.3-8.26l-1,4.32ZM103.16,94.53l4,5.78a87,87,0,0,0,11.41-11.38c-.23-.63-3.66-6.49-4-6.26Zm-46.8,40.93-4-2.63-8.51-.41C47.4,134.92,52.11,135.48,56.36,135.46ZM88,105.41a92.93,92.93,0,0,1-14.9,7.85l3.82,5.57c0,.07.71.53.83.49l14.43-7.82ZM122.53,94.5c.67.14,7.09-9.81,7.83-11.19.31-.9-1.88-6.21-2.27-6.35A74.29,74.29,0,0,1,119.7,89ZM102.27,95a139.63,139.63,0,0,1-13.2,9.67c-.77.72.29,1.09.74,1.71,1.08,1.5,2,3.09,3.13,4.58a147.35,147.35,0,0,0,13.51-9.87Zm34-22.16c-.27,0-1.72,4.35-1.94,4.86-.44,1-2.59,4.64-2.69,5.25-.14.92,1.23,3.92,1.08,5.15.35,0,1.79-3.39,2-4C136.44,80.19,137.44,77.13,136.3,72.82ZM81.12,125c-.88-.62-3.56-4.38-4.22-4.42l-14.26,4.88a27,27,0,0,0,4.43,4.44C68.91,129.62,80.93,126,81.12,125ZM70.6,134a24.16,24.16,0,0,0-3.79-2.9c-.64-.13-6,1.07-7.31,1.23-1.75.23-3.53.32-5.29.39,0,.29,3.37,2.21,3.88,2.42,1.49.62,3.48.38,5.09.23C64,135.33,70.52,134.4,70.6,134ZM119.13,90l-11.2,11.11c-.17.42,2.63,4.72,3,5.59l10.77-11C122,94.87,119.65,90.93,119.13,90ZM92.68,112.31A87,87,0,0,1,78.08,120c.38.76,3.66,4.8,4.14,4.85a99.65,99.65,0,0,0,14-7.42Zm38.25-27.75c-1.62,2.21-3,4.62-4.56,6.85-.68,1-2.85,3.14-3.2,4s1.27,3.93,1.42,5.12A91.09,91.09,0,0,0,132,89.84,18.82,18.82,0,0,0,130.93,84.56ZM93.5,111.75,97,116.82c4.77-2.5,9-6.1,13.07-9.6l-3-5.34A117.89,117.89,0,0,1,93.5,111.75Zm43.13-29.31L133,90.17l.16,3.3C134.81,90,136.41,86.31,136.63,82.44ZM85.41,129.53c-.74-.67-2.87-3.4-3.7-3.4L68,130.72a20,20,0,0,0,4.57,3A103.24,103.24,0,0,0,85.41,129.53Zm-13.18,5.25c-.53-.05-4.72,1-5.79,1.17-1.64.24-3.3.3-4.95.46,0,.24,1.76.74,2.06.82,3.54.93,8.38-.07,11.92-.88C74.73,136.17,72.79,134.84,72.23,134.78Zm49.92-38.22-10.56,10.82c-.23.5,1.72,3.52,1.9,4.37.51.07,6.64-6.09,7.49-7a25.7,25.7,0,0,0,2.59-3.06C124,100.74,122.55,97.6,122.15,96.56ZM99.71,122.11l-2.58-3.76-13.86,7c-.38.17-.33.2-.09.5a27.31,27.31,0,0,0,3.4,3.13Zm32.34-30.26c-2.34,3.31-4.46,6.8-7.23,9.8.23.47.48,3.61.66,3.66.62.17.18-.62.19-.65a3.81,3.81,0,0,0,.89-.63c1.25-1.59,5.16-7.06,5.46-8.74A30.31,30.31,0,0,0,132.05,91.85ZM97.88,117.7l2.64,3.85,4.51-2.79,7.64-6.15-2-4.47Zm-8.54,14.51a16.56,16.56,0,0,0-2.59-1.79c-.9-.34-5,1.6-6.21,2-2.2.73-4.44,1.36-6.66,2,0,.4,3.59,1.56,4.23,1.5A36.94,36.94,0,0,0,83,134.58C85.13,133.9,87.26,133.1,89.34,132.21ZM124,102.74l-9.83,9.93c-.37.58,1,2.44,1,3.29,1.84-1.67,3.82-3.3,5.55-5.07a37.08,37.08,0,0,0,3.6-4.1A13,13,0,0,0,124,102.74Zm-23.54,20a90.58,90.58,0,0,1-12.94,6.79,9.9,9.9,0,0,0,3.11,2.05c4.16-1.71,8-4,12-6.14Zm30.26-22.86c-1.13,1.33-2,2.89-3,4.3s-2.71,2.31-2.32,4.43C127.5,106.08,129.79,103.13,130.73,99.92Zm-17.56,13.54a91.17,91.17,0,0,1-7.93,6.05c-.34.24-.55.68-.88.91-.88.61-2.25.93-3.08,1.8l2.15,2.7,11-8.1Zm-20.88,20c-1.86-1.19-2.59-.2-4.23.38-2.65.94-5.35,1.76-8,2.66l3.26.07C84.46,136.06,92.07,134.09,92.29,133.46Zm31.87-24.85c-2.81,2.75-5.35,5.79-8.49,8.2l.23,1.93a9.12,9.12,0,0,0,1.43-1.06c1.63-1.45,6.11-5.89,6.67-7.78A3.19,3.19,0,0,0,124.16,108.61Zm-20.79,17.58-11.37,6a3.11,3.11,0,0,0,2.47.48c3.21-.92,6.79-3.73,9.88-5.09C104.08,127.3,103.61,126.25,103.37,126.19Zm11.29-8.38-10.47,7.78c.19.33,1,1.34,1.32,1.2a50.71,50.71,0,0,0,5.45-3.74,37.59,37.59,0,0,0,4-3.42C115,119.48,114.86,117.83,114.66,117.81Z"/></g></g></g></svg>