<svg xmlns="http://www.w3.org/2000/svg" viewBox="0 0 310.46 59.04"><defs><style>.cls-1{fill:#fff;}</style></defs><g id="Layer_2" data-name="Layer 2"><g id="Layer_1-2" data-name="Layer 1"><path class="cls-1" d="M31.35,59C20.79,59,13,55.37,7.6,49.43A29.31,29.31,0,0,1,0,29.52,29.62,29.62,0,0,1,9.52,7.77C14.76,3,21.83,0,31.35,0H279.11c9.52,0,16.59,3,21.83,7.77a29.62,29.62,0,0,1,9.52,21.75,29.31,29.31,0,0,1-7.6,19.91C297.45,55.37,289.67,59,279.11,59Zm0-43.41c-5.32,0-8.64,1.49-11.17,3.85a13.9,13.9,0,0,0-4.37,10.13A13.74,13.74,0,0,0,19.48,39c2.53,2.8,6.28,4.55,11.87,4.55H279.11c5.59,0,9.34-1.75,11.87-4.55a13.69,13.69,0,0,0,3.67-9.34,13.93,13.93,0,0,0-4.36-10.13c-2.54-2.36-5.86-3.85-11.18-3.85Z"/></g></g></svg>